<?xml version="1.0" standalone="no"?>
<!DOCTYPE svg PUBLIC "-//W3C//DTD SVG 20010904//EN"
 "http://www.w3.org/TR/2001/REC-SVG-20010904/DTD/svg10.dtd">
<svg version="1.0" xmlns="http://www.w3.org/2000/svg"
 width="224.000000pt" height="224.000000pt" viewBox="0 0 224.000000 224.000000"
 preserveAspectRatio="xMidYMid meet">
<metadata>
Created by potrace 1.14, written by Peter Selinger 2001-2017
</metadata>
<g transform="translate(0.000000,224.000000) scale(0.100000,-0.100000)"
fill="#000000" stroke="none">
<path d="M743 1863 l-378 -378 136 -3 136 -3 242 242 242 241 241 -241 240
-241 134 0 c74 0 134 2 134 5 0 2 -169 173 -375 380 l-375 375 -377 -377z"/>
<path d="M645 1273 c-37 -7 -63 -26 -70 -50 -7 -29 9 -54 62 -92 47 -34 58
-63 35 -90 -22 -26 -55 -13 -82 31 l-20 33 0 -37 c0 -31 4 -37 30 -46 16 -6
42 -9 57 -6 31 5 73 46 69 66 -6 37 -20 56 -61 83 -66 44 -74 95 -15 95 22 0
31 -7 42 -30 17 -39 24 -38 23 2 -1 25 -6 33 -25 38 -14 3 -34 4 -45 3z"/>
<path d="M1242 1235 c-1 -33 0 -36 8 -18 10 23 39 43 64 43 14 0 16 -17 16
-114 0 -101 -2 -115 -17 -119 -10 -3 9 -5 42 -4 33 0 51 2 40 4 -20 4 -21 11
-20 116 0 99 2 112 18 115 21 4 46 -14 57 -43 7 -17 9 -15 9 13 1 17 0 35 -1
38 -2 3 -51 6 -109 7 l-105 2 -2 -40z"/>
<path d="M777 1258 c12 -19 12 -211 0 -225 -7 -10 10 -13 82 -13 66 0 91 3 92
13 0 6 2 22 3 34 2 20 1 20 -23 -6 -20 -21 -35 -28 -61 -27 l-35 1 -3 104 c-2
67 1 108 9 117 9 12 4 14 -30 14 -31 0 -40 -3 -34 -12z"/>
<path d="M1075 1215 c-14 -30 -36 -79 -49 -108 -14 -30 -32 -61 -41 -70 -15
-16 -13 -17 26 -17 39 0 41 1 24 14 -18 13 -18 15 -1 60 17 43 20 46 55 46 34
0 39 -4 59 -45 12 -25 22 -52 22 -60 0 -11 12 -15 41 -15 37 0 39 1 24 16 -9
9 -41 65 -71 125 -30 60 -56 109 -59 109 -3 0 -16 -25 -30 -55z m35 -52 c0 -7
-11 -13 -24 -13 -23 0 -24 2 -13 30 11 28 13 29 24 13 7 -9 13 -23 13 -30z"/>
<path d="M1510 1260 c11 -6 14 -33 15 -107 1 -54 -3 -106 -7 -115 -8 -16 -1
-18 77 -18 l85 0 0 30 0 29 -25 -25 c-17 -17 -34 -24 -53 -22 -25 3 -27 6 -30
60 l-3 56 38 -9 c21 -5 40 -9 43 -9 3 0 6 13 6 29 2 27 1 28 -16 11 -9 -9 -28
-16 -41 -15 -22 1 -24 6 -24 51 l0 49 33 -2 c19 0 39 -9 47 -20 13 -17 14 -16
15 10 l0 27 -87 0 c-58 0 -83 -3 -73 -10z"/>
<path d="M370 755 c0 -3 169 -174 375 -380 l375 -375 375 375 c206 206 375
377 375 380 0 3 -60 5 -134 5 l-133 0 -242 -241 -241 -241 -241 241 -241 241
-134 0 c-74 0 -134 -2 -134 -5z"/>
</g>
</svg>
